<svg version="1.1" id="Слой_1" xmlns="http://www.w3.org/2000/svg" xmlns:xlink="http://www.w3.org/1999/xlink" x="0px" y="0px"
	 width="22.5px" height="22.5px" viewBox="0 0 22.5 22.5" style="enable-background:new 0 0 22.5 22.5;" xml:space="preserve">
<style type="text/css">
	.st0{fill:none;stroke:#FFFFFF;stroke-width:1.5;stroke-linecap:round;stroke-linejoin:round;stroke-miterlimit:10;}
</style>
<path class="st0" d="M8.22,5.002l13.53,0.85l-3.071,9.33H6.726L4.983,3.895L0.75,0.75 M7.93,15.182 M7.37,15.182
	c-0.719,0-1.307,0.698-1.307,1.551v0c0,0.853,0.588,1.551,1.307,1.551h11.164 M9.117,18.761c-0.806,0-1.459,0.669-1.459,1.494
	s0.653,1.494,1.459,1.494c0.806,0,1.459-0.669,1.459-1.494S9.923,18.761,9.117,18.761z M16.084,18.761
	c-0.806,0-1.459,0.669-1.459,1.494s0.653,1.494,1.459,1.494s1.459-0.669,1.459-1.494S16.89,18.761,16.084,18.761z"/>
</svg>
