<svg version="1.1" id="Слой_1" xmlns="http://www.w3.org/2000/svg" xmlns:xlink="http://www.w3.org/1999/xlink" x="0px" y="0px"
	 width="16px" height="19px" viewBox="0 0 16 19" style="enable-background:new 0 0 16 19;" xml:space="preserve">
<style type="text/css">
	.st0{fill:none;stroke:#000000;stroke-miterlimit:10;}
</style>
<path class="st0" d="M4.771,4.077c0-0.013,0.004-0.027,0.004-0.036C4.914,0.843,7.053,0.5,7.969,0.5h0.017c0.008,0,0.021,0,0.034,0
	c1.135,0.027,3.064,0.517,3.194,3.542c0,0.013,0,0.027,0.004,0.036c0.004,0.031,0.298,3.064-1.038,4.661
	C9.65,9.372,8.944,9.684,8.015,9.693c-0.008,0-0.013,0-0.021,0l0,0c-0.008,0-0.013,0-0.021,0c-0.925-0.009-1.635-0.321-2.16-0.955
	C4.481,7.15,4.767,4.104,4.771,4.077z M9.717,9.23c-0.288,0.471,0.824,1.594,0.824,1.594c0.071,0.054,1.744,1.289,3.837,1.86
	c0.979,0.37,1.088,1.481,1.118,2.498c0,0.04,0,0.076,0.004,0.112c0.004,0.401-0.021,1.021-0.088,1.378
	c-0.681,0.41-3.349,1.829-7.409,1.829c-4.043,0-6.728-1.423-7.413-1.833c-0.067-0.357-0.097-0.977-0.088-1.378
	c0-0.036,0.004-0.071,0.004-0.112c0.029-1.017,0.139-2.128,1.118-2.498c2.093-0.571,3.765-1.811,3.837-1.86
	c0,0,0.85-0.93,0.861-1.589 M14.722,11.537 M1.321,11.519"/>
</svg>
